# xmcd
#
# Track frame offsets:
#	150
#	6448
#	19822
#	20378
#	26403
#	47308
#	73743
#	77736
#	84166
#	94437
#	105255
#	107699
#	132956
#	142340
#
# Disc length: 1954 seconds
#
# Revision: 0
# Processed by: cddbd v1.5.2PL0 Copyright (c) Steve Scherf et al.
# Submitted via: EasyCDDAExtractor 4.6.9.1
#
DISCID=ac07a00e
DTITLE=Marie-Jo Thério - Chasing Lydie [CD 2)
DYEAR=2011
DGENRE=blues
TTITLE0=Break the News to Mother (excerpt)
TTITLE1=Blow Wind Blow
TTITLE2=Life's a Dream and Then It's Over
TTITLE3=Dancing
TTITLE4=Don't Stop the Music Now
TTITLE5=Chasing Memory
TTITLE6=I Remember Her Singing
TTITLE7=Boston's Cocoanut Grove
TTITLE8=Sentimental Me
TTITLE9=French Club
TTITLE10=We're Gonna Erase That You Know
TTITLE11=Snow Against Sugar Cane
TTITLE12=Memramcook
TTITLE13=Put Another Nickel
EXTD=
EXTT0=
EXTT1=
EXTT2=
EXTT3=
EXTT4=
EXTT5=
EXTT6=
EXTT7=
EXTT8=
EXTT9=
EXTT10=
EXTT11=
EXTT12=
EXTT13=
PLAYORDER=
